# xmcd
#
# Track frame offsets:
#	150
#	24312
#	41915
#	58772
#
# Disc length: 1103 seconds
#
# Revision: 1
# Processed by: cddbd v1.5PL3 Copyright (c) Steve Scherf et al.
# Submitted via: CDex 1.50Beta5
#
DISCID=2f044d04
DTITLE=Baby Boo - Gift
DYEAR=2003
DGENRE=New Age
TTITLE0=Gift
TTITLE1=深海
TTITLE2=Time After Time
TTITLE3=Gift(-one version)
EXTD=
EXTT0=
EXTT1=
EXTT2=
EXTT3=
PLAYORDER=
